<?xml version="1.0" standalone="no"?>
<!DOCTYPE svg PUBLIC "-//W3C//DTD SVG 20010904//EN"
 "http://www.w3.org/TR/2001/REC-SVG-20010904/DTD/svg10.dtd">
<svg version="1.0" xmlns="http://www.w3.org/2000/svg"
 width="300.000000pt" height="123.000000pt" viewBox="0 0 300.000000 123.000000"
 preserveAspectRatio="xMidYMid meet">

<g transform="translate(0.000000,123.000000) scale(0.100000,-0.100000)"
fill="#ffffff" stroke="none">
<path d="M1100 875 l0 -76 -29 22 c-75 55 -174 2 -188 -101 -15 -114 109 -204
191 -139 l27 22 15 -22 c9 -12 26 -21 41 -21 25 0 26 2 19 46 -3 26 -6 114 -6
195 l0 149 -35 0 -35 0 0 -75z m-20 -117 c27 -29 27 -91 0 -118 -25 -25 -71
-26 -101 -1 -30 24 -33 89 -5 120 26 28 79 28 106 -1z"/>
<path d="M2362 769 l3 -183 26 -15 c17 -9 37 -12 63 -7 31 6 37 11 34 29 -2
16 -11 23 -30 25 l-28 3 -2 162 -3 162 -33 3 -32 3 2 -182z"/>
<path d="M586 763 c-36 -98 -66 -182 -66 -186 0 -4 15 -7 34 -7 30 0 35 4 51
45 l17 46 66 -3 67 -3 15 -42 c13 -40 17 -43 51 -43 l38 0 -29 78 c-15 42 -45
124 -67 182 l-38 105 -36 3 -36 3 -67 -178z m132 10 l21 -63 -53 0 -53 0 25
70 c14 39 28 67 32 63 4 -4 17 -36 28 -70z"/>
<path d="M1370 755 l0 -185 35 0 35 0 0 185 0 185 -35 0 -35 0 0 -185z"/>
<path d="M1850 885 c0 -33 -4 -45 -15 -45 -9 0 -15 -9 -15 -25 0 -15 6 -25 14
-25 11 0 15 -22 18 -101 4 -119 14 -134 86 -126 52 6 63 15 55 45 -4 18 -11
22 -26 18 -36 -9 -47 11 -47 90 l0 74 30 0 c25 0 30 4 30 25 0 21 -5 25 -30
25 -29 0 -30 2 -30 45 0 45 0 45 -35 45 -35 0 -35 0 -35 -45z"/>
<path d="M1647 836 c-20 -8 -44 -19 -52 -26 -13 -10 -15 -9 -15 9 0 17 -6 21
-30 21 l-30 0 0 -135 0 -135 33 0 32 0 0 86 c0 78 2 88 24 105 13 10 36 19 52
19 25 0 30 -5 39 -41 7 -23 10 -71 8 -106 l-3 -63 33 0 32 0 0 105 c0 118 -10
150 -53 165 -16 5 -30 10 -31 10 -1 -1 -18 -7 -39 -14z"/>
<path d="M2132 840 c-19 -4 -47 -20 -63 -36 -101 -97 -25 -257 115 -242 47 6
109 43 103 62 -6 18 -45 19 -69 2 -31 -22 -74 -20 -98 4 -42 42 -29 50 85 50
l105 0 0 33 c0 83 -90 147 -178 127z m67 -55 c26 -13 41 -33 41 -56 0 -5 -31
-9 -70 -9 -61 0 -70 2 -70 18 0 24 31 51 68 61 2 1 16 -6 31 -14z"/>
<path d="M164 328 c-19 -37 -14 -102 10 -127 14 -14 14 -11 0 26 -15 38 -15
47 -2 88 18 53 15 58 -8 13z"/>
<path d="M391 285 c-18 -42 -30 -80 -26 -83 3 -3 8 4 12 16 4 18 12 22 48 22
35 0 45 -4 50 -20 3 -11 10 -20 15 -20 8 0 -45 138 -60 153 -4 5 -22 -26 -39
-68z m57 3 c11 -27 10 -28 -18 -28 -33 0 -36 7 -18 45 12 28 18 25 36 -17z"/>
<path d="M690 350 c0 -5 13 -10 30 -10 l29 0 4 -72 3 -73 2 73 2 72 31 0 c17
0 28 4 24 10 -3 6 -33 10 -66 10 -33 0 -59 -4 -59 -10z"/>
<path d="M1001 278 c1 -52 4 -72 8 -53 3 17 10 29 14 28 4 -2 15 -3 25 -3 10
0 25 -11 32 -25 7 -14 18 -25 23 -25 5 0 2 12 -8 26 -15 23 -15 27 -1 43 37
41 3 91 -61 91 l-33 0 1 -82z m94 43 c11 -34 -4 -51 -46 -51 -38 0 -39 1 -39
35 0 34 1 35 39 35 30 0 41 -5 46 -19z"/>
<path d="M1542 299 c-2 -72 8 -94 48 -104 18 -4 34 0 53 15 25 20 27 27 25 88
l-1 67 -6 -61 c-7 -71 -22 -94 -62 -94 -36 0 -43 12 -50 90 l-6 65 -1 -66z"/>
<path d="M1835 319 c-15 -22 -29 -47 -32 -55 -9 -23 -16 -17 -45 36 -16 28
-32 50 -38 50 -6 0 -10 -32 -10 -75 0 -41 3 -75 8 -75 4 0 5 25 4 55 -5 66 9
72 38 15 11 -22 24 -40 29 -40 5 0 22 21 38 48 l28 47 6 -65 6 -65 1 83 c1 45
0 82 -3 82 -3 0 -16 -18 -30 -41z"/>
<path d="M1917 353 c-4 -3 -7 -39 -7 -80 l0 -73 58 2 c56 2 56 2 10 5 -45 4
-48 6 -48 33 0 27 3 29 43 33 l42 4 -42 1 c-41 2 -43 4 -43 32 0 29 2 30 46
30 27 0 43 4 39 10 -7 11 -88 14 -98 3z"/>
<path d="M2057 353 c-11 -11 -8 -153 3 -153 6 0 10 11 10 25 0 20 5 25 25 25
15 0 31 -9 41 -25 9 -14 20 -25 25 -25 5 0 2 11 -7 25 -14 22 -14 26 0 47 21
30 20 44 -4 68 -19 19 -79 28 -93 13z m92 -31 c15 -28 -5 -52 -44 -52 -33 0
-35 2 -35 35 0 33 2 35 35 35 23 0 38 -6 44 -18z"/>
<path d="M2345 350 c-4 -6 6 -10 24 -10 l30 0 4 -72 3 -73 2 73 2 72 30 0 c17
0 30 5 30 10 0 6 -26 10 -59 10 -33 0 -63 -4 -66 -10z"/>
<path d="M2535 348 c-41 -22 -56 -67 -39 -113 9 -22 61 -47 84 -40 28 9 60 53
60 82 0 26 -50 83 -72 83 -7 0 -22 -6 -33 -12z m62 -16 c32 -20 32 -94 0 -114
-40 -26 -97 8 -97 57 0 49 57 83 97 57z"/>
<path d="M2678 354 c-5 -4 -7 -41 -7 -83 1 -42 4 -64 6 -48 6 38 53 39 78 1 9
-14 19 -23 22 -21 3 3 -2 15 -10 27 -14 20 -13 24 4 41 19 19 19 51 -1 72 -11
12 -83 20 -92 11z m87 -49 c0 -28 -3 -30 -42 -33 l-43 -3 0 36 0 36 43 -3 c39
-3 42 -5 42 -33z"/>
<path d="M2828 315 c13 -41 13 -50 -1 -85 -8 -22 -14 -40 -11 -40 9 0 34 61
34 85 0 23 -25 85 -34 85 -2 0 3 -20 12 -45z"/>
<path d="M220 275 c0 -43 4 -75 10 -75 6 0 10 11 10 24 0 13 7 29 15 36 13 11
18 10 30 -6 35 -49 44 -59 49 -53 3 3 -8 22 -25 42 -31 38 -31 44 5 87 11 14
-1 5 -27 -20 l-47 -44 0 42 c0 23 -4 42 -10 42 -6 0 -10 -32 -10 -75z"/>
<path d="M520 275 c0 -90 18 -101 22 -14 l3 62 48 -62 c27 -33 53 -61 58 -61
5 0 9 34 9 75 0 90 -18 101 -22 14 l-3 -61 -45 61 c-25 33 -51 60 -57 61 -9 0
-13 -21 -13 -75z"/>
<path d="M883 333 c-3 -10 -17 -42 -30 -72 -23 -53 -25 -83 -3 -42 15 30 89
30 97 1 3 -11 9 -20 14 -20 5 0 0 21 -10 48 -42 106 -55 121 -68 85z m30 -20
c2 -10 8 -26 12 -35 6 -15 2 -18 -24 -18 -17 0 -31 2 -31 4 0 1 5 17 11 35 12
35 24 40 32 14z"/>
<path d="M1360 275 c0 -43 4 -75 10 -75 6 0 10 27 10 61 l0 62 48 -61 c26 -34
53 -61 60 -62 8 0 12 21 12 75 0 90 -18 101 -22 13 l-3 -63 -49 63 c-27 34
-53 62 -57 62 -5 0 -9 -34 -9 -75z"/>
<path d="M2241 328 c-5 -13 -19 -45 -30 -71 -24 -55 -24 -57 -12 -57 5 0 11 9
14 20 4 16 14 20 47 20 33 0 43 -4 47 -20 3 -11 9 -20 14 -20 5 0 0 21 -10 48
-44 110 -54 121 -70 80z m32 -15 c2 -10 8 -26 12 -35 6 -15 2 -18 -24 -18 -17
0 -31 2 -31 4 0 1 5 17 11 35 12 35 24 40 32 14z"/>
<path d="M1231 298 c0 -9 -9 -19 -18 -21 -16 -4 -16 -5 -1 -6 9 0 19 -9 21
-18 4 -16 5 -16 6 -1 0 9 9 19 19 21 15 4 15 5 0 6 -9 0 -19 9 -21 19 -4 15
-5 15 -6 0z"/>
</g>
</svg>
