<svg xmlns="http://www.w3.org/2000/svg" width="643" height="158" viewBox="0 0 643 158">
  <g fill="none" fill-rule="evenodd">
    <path fill="#004A52" fill-rule="nonzero" d="M221.424001,143 L224.718002,134.197999 L240.837005,134.197999 L244.131005,143 L252.177006,143 L237.462004,105.199994 L228.282003,105.199994 L213.567,143 L221.424001,143 Z M238.245004,127.258997 L227.310002,127.258997 L232.791003,112.651995 L238.245004,127.258997 Z M266.565002,143.675 C270.156003,143.675 272.694003,142.217 274.395004,140.111 L274.395004,143 L281.280005,143 L281.280005,104.119994 L274.260004,104.119994 L274.260004,119.563996 C272.559003,117.511996 270.075003,116.134996 266.565002,116.134996 C259.356001,116.134996 253.902,122.047997 253.902,129.904998 C253.902,137.761999 259.356001,143.675 266.565002,143.675 Z M267.861003,137.113999 C263.730002,137.113999 261.111002,133.900999 261.111002,129.904998 C261.111002,125.908997 263.730002,122.695997 267.861003,122.695997 C271.884003,122.695997 274.611002,125.773997 274.611002,129.904998 C274.611002,134.035999 271.884003,137.113999 267.861003,137.113999 Z M316.485005,143 L316.485005,135.952999 L296.505002,135.952999 L296.505002,105.199994 L288.972001,105.199994 L288.972001,143 L316.485005,143 Z M331.872002,143.675 C335.463003,143.675 338.001003,142.217 339.702004,140.111 L339.702004,143 L346.587005,143 L346.587005,116.836996 L339.702004,116.836996 L339.702004,119.725996 C337.974003,117.592996 335.463003,116.134996 331.872002,116.134996 C324.663001,116.134996 319.209,122.047997 319.209,129.904998 C319.209,137.761999 324.663001,143.675 331.872002,143.675 Z M333.168003,137.113999 C329.037002,137.113999 326.418001,133.900999 326.418001,129.904998 C326.418001,125.908997 329.037002,122.695997 333.168003,122.695997 C337.191003,122.695997 339.918001,125.773997 339.918001,129.904998 C339.918001,134.035999 337.191003,137.113999 333.168003,137.113999 Z M360.732002,143 L360.732002,132.415998 L363.108002,132.415998 L370.641003,143 L379.308005,143 L368.913003,129.148998 L379.227005,116.836996 L370.587003,116.836996 L363.216002,126.151997 L360.732002,126.151997 L360.732002,104.119994 L353.685001,104.119994 L353.685001,143 L360.732002,143 Z M393.615003,143.675 C398.016003,143.675 401.796004,142.433 404.766004,139.705999 L400.635004,135.169999 C398.745003,136.762999 396.288003,137.680999 394.020003,137.680999 C390.699002,137.680999 388.053002,136.033999 387.297001,132.253998 L405.846005,132.253998 C405.927005,131.659998 405.981005,130.687998 405.981005,129.877998 C405.954005,121.723997 400.797004,116.134996 393.264002,116.134996 C385.434001,116.134996 380.034,121.750997 380.034,129.985998 C380.034,138.220999 385.596001,143.675 393.615003,143.675 Z M398.907003,127.447997 L387.324001,127.447997 C387.945002,124.207997 389.889002,122.209997 393.210002,122.209997 C396.234003,122.209997 398.259003,124.099997 398.907003,127.447997 Z"/>
    <path fill="#004A52" d="M315.465882 59.3558292C315.465882 72.3784101 306.237278 78 295.895067 78 285.513162 78 276.282353 72.3784101 276.282353 59.3558292L276.282353 40.5315214C276.282353 37.477981 278.769776 35 281.837157 35L281.88126 35C284.948641 35 287.436064 37.477981 287.436064 40.5315214L287.436064 58.3738633C287.436064 64.9730254 291.067966 67.6553081 295.895067 67.6553081 300.682474 67.6553081 304.356275 64.9730254 304.356275 58.3738633L304.356275 40.5315214C304.356275 37.477981 306.843698 35 309.911078 35 312.980664 35 315.465882 37.477981 315.465882 40.5315214L315.465882 59.3558292M392.828235 51.1495308L392.828235 72.4477719C392.828235 75.514948 390.295037 78 387.171208 78 384.047379 78 381.514181 75.514948 381.514181 72.4477719L381.514181 54.7392954C381.514181 48.7570894 378.426284 45.4672068 373.290269 45.4672068 368.417007 45.4672068 364.367932 48.5850982 364.367932 54.823086L364.367932 72.4477719C364.367932 75.514948 361.836979 78 358.710904 78L358.668235 78C355.544406 78 353.011208 75.514948 353.011208 72.4477719L353.011208 54.7392954C353.011208 48.7570894 349.96598 45.4672068 344.787296 45.4672068 339.914034 45.4672068 335.864959 48.5850982 335.864959 54.823086L335.864959 72.4477719C335.864959 75.514948 333.33176 78 330.207932 78L330.165262 78C327.041434 78 324.508235 75.514948 324.508235 72.4477719L324.508235 40.83447C324.508235 37.8378545 326.983044 35.4079278 330.035009 35.4079278 333.086974 35.4079278 335.561783 37.8378545 335.561783 40.83447L335.561783 40.980001C338.564342 36.5809958 343.177099 35 347.965023 35 354.055479 35 359.06124 37.6923235 361.888631 42.0935337 365.151696 36.8367776 370.67847 35 376.205244 35 386.126938 35 392.828235 41.5378699 392.828235 51.1495308M410.430579 53.0719454L428.820403 53.0719454C427.789529 47.7247154 424.575236 44.706046 419.774813 44.706046 414.503196 44.706046 411.41721 47.8961295 410.430579 53.0719454zM440.049412 56.9565899L440.049412 56.9944346C440.0472 59.0736656 438.359309 60.7521882 436.293136 60.7521882L410.386335 60.7521882C411.587547 66.7917531 415.788471 69.4230711 421.060088 69.4230711 423.537725 69.4230711 426.15473 68.7307361 428.521759 67.4685049 430.45299 66.4422464 432.815594 66.7939793 434.284479 68.4190741L434.552153 68.7129269C436.636023 71.0169997 435.974582 74.6745763 433.227059 76.1149001 429.47742 78.0783709 425.176948 79 420.418556 79 407.68748 79 398.856471 70.284594 398.856471 57.128004 398.856471 43.9736403 407.428655 35 419.861088 35 431.820115 35 440.00738 43.9291171 440.049412 56.9565899L440.049412 56.9565899zM474.14675 40.7579476L474.13326 40.8315672C473.685827 43.6402677 471.102408 45.6279978 468.253678 45.3201339 467.60164 45.250976 466.954099 45.2130508 466.338035 45.2130508 461.065523 45.2130508 457.447837 48.9609593 457.447837 55.1873954L457.447837 73.36029C457.447837 76.4746235 454.90489 79 451.763866 79 448.622843 79 446.077647 76.4746235 446.077647 73.36029L446.077647 40.7066369C446.077647 37.7640825 448.481193 35.3792526 451.446841 35.3792526L451.73014 35.3792526C454.695788 35.3792526 457.101583 37.7640825 457.101583 40.7066369 459.759199 36.771333 463.810827 35 468.995652 35L469.267709 35C472.321044 35.0334635 474.623412 37.7640825 474.14675 40.7579476M487.594923 56.9988869C487.594923 63.3835062 491.726289 68.517025 498.245449 68.517025 504.593111 68.517025 508.895976 63.5994435 508.895976 56.9988869 508.895976 50.3983304 504.593111 45.4807488 498.245449 45.4807488 491.726289 45.4807488 487.594923 50.6142676 487.594923 56.9988869zM513.988177 78.9065014L513.988177 78.9065014C510.986944 78.9065014 508.555177 76.4443714 508.555177 73.4056666L508.555177 73.3032633C505.872757 76.6692133 501.866716 79 496.200654 79 484.824555 79 476.218824 69.5521882 476.218824 56.9988869 476.218824 44.4455856 484.824555 35 496.200654 35 501.866716 35 505.828783 37.3285606 508.555177 40.7345813 508.555177 37.7537566 510.945169 35.3339236 513.893632 35.3339236L514.082721 35.3339236C517.031184 35.3339236 519.421176 37.7537566 519.421176 40.7345813L519.421176 73.4056666C519.421176 76.4443714 516.98721 78.9065014 513.988177 78.9065014L513.988177 78.9065014zM552.009107 45.9864716L543.823275 45.9864716 543.823275 61.3239228C543.823275 66.5645913 546.591323 68.4717117 550.096029 68.4717117 551.330489 68.4717117 552.61406 68.1855319 553.861914 67.7428474 556.310743 66.8708932 559.022984 67.9865474 560.130203 70.3430596 561.331179 72.9030278 560.221728 75.9727538 557.632263 77.1040585 554.980295 78.2644284 551.942139 79 548.236526 79 537.854113 79 532.532317 73.1064838 532.532317 62.2338853L532.532317 45.9864716 529.462909 45.9864716C526.690397 45.9864716 524.444706 43.7350411 524.444706 40.9604381 524.444706 38.185835 526.690397 35.9366403 529.462909 35.9366403L532.532317 35.9366403 532.532317 25.6565236C532.532317 22.5331388 535.06151 20 538.177796 20 541.296315 20 543.823275 22.5331388 543.823275 25.6565236L543.823275 35.9366403 552.009107 35.9366403C554.779388 35.9366403 557.027311 38.185835 557.027311 40.9604381 557.027311 43.7350411 554.779388 45.9864716 552.009107 45.9864716M574.100687 56.9988869C574.100687 63.7708576 578.845173 68.517025 585.188223 68.517025 591.529047 68.517025 596.318061 63.7708576 596.318061 56.9988869 596.318061 50.2269163 591.529047 45.4807488 585.188223 45.4807488 578.845173 45.4807488 574.100687 50.2269163 574.100687 56.9988869zM607.835294 56.9988869C607.835294 69.5944852 598.217191 79 585.188223 79 572.201557 79 562.623529 69.5944852 562.623529 56.9988869 562.623529 44.4032886 572.201557 35 585.188223 35 598.217191 35 607.835294 44.4032886 607.835294 56.9988869L607.835294 56.9988869zM642.940977 40.9520357L642.918496 41.0858896C642.468864 44.0552147 639.75309 46.1210262 636.740559 45.842164 636.192009 45.7886224 635.645706 45.7618516 635.124134 45.7618516 629.852205 45.7618516 626.237167 48.9609593 626.237167 55.1873954L626.237167 73.36029C626.237167 76.4746235 623.692253 79 620.551577 79 617.41315 79 614.868235 76.4746235 614.868235 73.36029L614.868235 40.7066369C614.868235 37.7395427 617.291749 35.3346347 620.281798 35.3346347L620.472892 35.3346347C623.465189 35.3346347 625.888703 37.7395427 625.888703 40.7066369 628.546025 36.771333 632.597205 35 637.781456 35L637.853397 35C641.016554 35.0089236 643.410842 37.8488567 642.940977 40.9520357M267.24 25.4533723C267.24 22.4393148 264.79213 20 261.772494 20 258.750625 20 256.300521 22.4393148 256.300521 25.4533723L256.300521 57.7347519 225.679808 21.9135812C225.108043 21.2452758 224.400037 20.7685512 223.638427 20.4499923L223.513354 20.4009833C223.243105 20.2940544 222.970623 20.2071747 222.691441 20.1470272L222.363123 20.0891074C222.13531 20.0534644 221.911964 20.0267322 221.684151 20.0200492L221.469739 20 221.170456 20.0289599 220.696963 20.0757413C220.457983 20.1091566 220.225703 20.1603933 219.995657 20.2249962L219.761144 20.2962821C219.46186 20.3943002 219.178211 20.5168229 218.905729 20.6616224L218.86106 20.6861269C217.163632 21.6128438 216 23.3883085 216 25.4533723L216 72.5421724C216 75.5562298 218.44787 78 221.469739 78 224.489375 78 226.939479 75.5562298 226.939479 72.5421724L226.939479 40.2051006 257.609328 76.0819634 257.750036 76.2156245 258.274898 76.7079428 258.607684 76.9797204C258.806462 77.1222922 259.02534 77.2403595 259.244219 77.3561991L259.577005 77.5344139C259.84502 77.6502535 260.130902 77.7349055 260.419018 77.8106468L260.640131 77.879705C261.006418 77.9554463 261.383872 78 261.772494 78L261.774728 78C262.116447 78 262.460399 77.9599017 262.799885 77.8952988L263.148304 77.8039637C263.358249 77.7482716 263.568195 77.6903518 263.771439 77.6101552L264.157828 77.4297127 264.671523 77.1534798 265.051211 76.8861576 265.321459 76.6945767 265.464401 76.5430942 265.86419 76.1309725 266.190275 75.7366723 266.473924 75.28668 266.726305 74.8233216 266.913915 74.3354586 267.074724 73.8230911 267.161829 73.3240897 267.219899 72.7493471 267.24 72.5421724 267.24 25.4533723"/>
    <path fill="#00E36B" fill-opacity=".5" d="M128.501786,0.501785669 C144.241901,0.501785669 157.001786,13.2616703 157.001786,29.0017857 L157.001786,129.001786 C157.001786,144.741901 144.241901,157.501786 128.501786,157.501786 C112.76167,157.501786 100.001786,144.741901 100.001786,129.001786 L100.001786,29.0017857 C100.001786,13.2616703 112.76167,0.501785669 128.501786,0.501785669 Z M28.5017857,0.501785669 C44.241901,0.501785669 57.0017857,13.2616703 57.0017857,29.0017857 L57.0017857,129.001786 C57.0017857,144.741901 44.241901,157.501786 28.5017857,157.501786 C12.7616703,157.501786 0.00178566873,144.741901 0.00178566873,129.001786 L0.00178566873,29.0017857 C0.00178566873,13.2616703 12.7616703,0.501785669 28.5017857,0.501785669 Z"/>
    <path fill="#00E36B" d="M28.5017857,100.501786 C44.241901,100.501786 57.0017857,113.26167 57.0017857,129.001786 C57.0017857,144.741901 44.241901,157.501786 28.5017857,157.501786 C12.7616703,157.501786 0.00178566873,144.741901 0.00178566873,129.001786 C0.00178566873,113.26167 12.7616703,100.501786 28.5017857,100.501786 Z M48.6525433,8.34745674 L149.061706,108.75662 C160.191649,119.886562 160.191649,137.931764 149.061706,149.061706 C137.931764,160.191649 119.886562,160.191649 108.75662,149.061706 L8.34745674,48.6525433 C-2.78248558,37.5226009 -2.78248558,19.4773991 8.34745674,8.34745674 C19.4773991,-2.78248558 37.5226009,-2.78248558 48.6525433,8.34745674 Z M128.501786,0.501785669 C144.241901,0.501785669 157.001786,13.2616703 157.001786,29.0017857 C157.001786,44.741901 144.241901,57.5017857 128.501786,57.5017857 C112.76167,57.5017857 100.001786,44.741901 100.001786,29.0017857 C100.001786,13.2616703 112.76167,0.501785669 128.501786,0.501785669 Z"/>
  </g>
</svg>
